<?xml version="1.0" encoding="UTF-8" standalone="no"?>
<!-- Created with Vectornator (http://vectornator.io/) -->

<svg
   height="65.182999"
   stroke-miterlimit="10"
   style="clip-rule:evenodd;fill-rule:nonzero;stroke-linecap:round;stroke-linejoin:round"
   version="1.1"
   viewBox="0 0 65.182002 65.182999"
   width="65.181999"
   xml:space="preserve"
   id="svg69"
   sodipodi:docname="facs-logo.svg"
   inkscape:version="1.1.1 (c3084ef, 2021-09-22)"
   xmlns:inkscape="http://www.inkscape.org/namespaces/inkscape"
   xmlns:sodipodi="http://sodipodi.sourceforge.net/DTD/sodipodi-0.dtd"
   xmlns="http://www.w3.org/2000/svg"
   xmlns:svg="http://www.w3.org/2000/svg"
   xmlns:vectornator="http://vectornator.io"><sodipodi:namedview
   id="namedview859"
   pagecolor="#ffffff"
   bordercolor="#666666"
   borderopacity="1.0"
   inkscape:pageshadow="2"
   inkscape:pageopacity="0.0"
   inkscape:pagecheckerboard="0"
   showgrid="false"
   inkscape:zoom="8.7446115"
   inkscape:cx="32.534321"
   inkscape:cy="32.534321"
   inkscape:window-width="1312"
   inkscape:window-height="969"
   inkscape:window-x="0"
   inkscape:window-y="25"
   inkscape:window-maximized="0"
   inkscape:current-layer="g66" />
<metadata
   id="metadata2">
<vectornator:setting
   key="IsTimeLapseWatermarkDisabled"
   value="false" />
<vectornator:setting
   key="UndoHistoryDisabled"
   value="true" />
<vectornator:setting
   key="VNDimensionsVisible"
   value="true" />
<vectornator:setting
   key="VNSnapToGuides"
   value="true" />
<vectornator:setting
   key="WDCMYKEnabledKey"
   value="false" />
<vectornator:setting
   key="WDDisplayWhiteBackground"
   value="false" />
<vectornator:setting
   key="WDDynamicGuides"
   value="false" />
<vectornator:setting
   key="WDGuidesVisible"
   value="true" />
<vectornator:setting
   key="WDIsolateActiveLayer"
   value="false" />
<vectornator:setting
   key="WDOutlineMode"
   value="false" />
<vectornator:setting
   key="WDRulersVisible"
   value="true" />
<vectornator:setting
   key="WDSnapToEdges"
   value="false" />
<vectornator:setting
   key="WDSnapToGrid"
   value="false" />
<vectornator:setting
   key="WDSnapToPoints"
   value="false" />
<vectornator:setting
   key="WDUnits"
   value="Points" />
</metadata>
<defs
   id="defs16">
<clipPath
   id="TextBounds">
<rect
   height="44.990002"
   width="88.964996"
   x="221.431"
   y="290.09"
   id="rect4" />
</clipPath>
<clipPath
   id="TextBounds_2">
<rect
   height="21.450001"
   width="90.345001"
   x="220.394"
   y="320.45801"
   id="rect7" />
</clipPath>
<clipPath
   id="TextBounds_3">
<rect
   height="44.990002"
   width="46.560001"
   x="243.75301"
   y="526.01501"
   id="rect10" />
</clipPath>
<clipPath
   id="TextBounds_4">
<rect
   height="44.990002"
   width="46.328999"
   x="245.657"
   y="554.76801"
   id="rect13" />
</clipPath>





</defs>
<g
   fill="#fffffe"
   opacity="1"
   stroke="none"
   id="g28"
   transform="translate(-255.00699,-344.77601)">
<path
   clip-path="url(#TextBounds)"
   d="m 239.794,304.686 h -7.788 v 4.158 h 7.095 v 5.478 h -7.095 v 9.768 h -6.468 v -24.882 h 14.256 z"
   fill-rule="evenodd"
   id="path20" />
<path
   clip-path="url(#TextBounds)"
   d="m 256.162,314.85 -2.904,-8.283 -2.904,8.283 z m 1.716,4.917 h -9.24 l -1.485,4.323 h -6.897 l 9.471,-24.882 h 7.062 l 9.471,24.882 h -6.897 z"
   fill-rule="evenodd"
   id="path22" />
<path
   clip-path="url(#TextBounds)"
   d="m 286.093,307.524 c -1.496,-1.826 -3.344,-2.739 -5.544,-2.739 -0.968,0 -1.865,0.176 -2.69,0.528 -0.825,0.352 -1.534,0.83 -2.128,1.435 -0.594,0.605 -1.062,1.326 -1.403,2.162 -0.341,0.836 -0.511,1.738 -0.511,2.706 0,0.99 0.17,1.903 0.511,2.739 0.341,0.836 0.814,1.562 1.419,2.178 0.605,0.616 1.315,1.1 2.129,1.452 0.814,0.352 1.694,0.528 2.64,0.528 2.068,0 3.927,-0.88 5.577,-2.64 v 7.656 l -0.66,0.231 c -0.99,0.352 -1.914,0.61 -2.772,0.775 -0.858,0.165 -1.705,0.248 -2.541,0.248 -1.716,0 -3.361,-0.325 -4.934,-0.974 -1.573,-0.649 -2.959,-1.562 -4.158,-2.739 -1.199,-1.177 -2.161,-2.574 -2.887,-4.191 -0.726,-1.617 -1.089,-3.382 -1.089,-5.296 0,-1.914 0.357,-3.669 1.072,-5.264 0.715,-1.595 1.672,-2.97 2.871,-4.125 1.199,-1.155 2.591,-2.057 4.175,-2.706 1.584,-0.649 3.245,-0.973 4.983,-0.973 0.99,0 1.963,0.104 2.92,0.313 0.957,0.209 1.964,0.534 3.02,0.974 z"
   fill-rule="evenodd"
   id="path24" />
<path
   clip-path="url(#TextBounds)"
   d="m 303.847,305.577 c -0.704,-0.572 -1.408,-0.996 -2.112,-1.271 -0.704,-0.275 -1.386,-0.412 -2.046,-0.412 -0.836,0 -1.518,0.198 -2.046,0.594 -0.528,0.396 -0.792,0.913 -0.792,1.551 0,0.44 0.132,0.803 0.396,1.089 0.264,0.286 0.61,0.533 1.039,0.742 0.429,0.209 0.913,0.391 1.452,0.545 0.539,0.154 1.073,0.319 1.601,0.495 2.112,0.704 3.657,1.644 4.636,2.821 0.979,1.177 1.469,2.712 1.469,4.604 0,1.276 -0.215,2.431 -0.644,3.465 -0.429,1.034 -1.056,1.919 -1.881,2.656 -0.825,0.737 -1.837,1.309 -3.036,1.716 -1.199,0.407 -2.557,0.611 -4.075,0.611 -3.146,0 -6.061,-0.935 -8.745,-2.805 l 2.772,-5.214 c 0.968,0.858 1.925,1.496 2.871,1.914 0.946,0.418 1.881,0.627 2.805,0.627 1.056,0 1.842,-0.242 2.359,-0.726 0.517,-0.484 0.776,-1.034 0.776,-1.65 0,-0.374 -0.066,-0.699 -0.198,-0.974 -0.132,-0.275 -0.352,-0.528 -0.66,-0.759 -0.308,-0.231 -0.71,-0.445 -1.205,-0.643 -0.495,-0.198 -1.094,-0.418 -1.798,-0.66 -0.836,-0.264 -1.656,-0.556 -2.459,-0.875 -0.803,-0.319 -1.518,-0.742 -2.145,-1.27 -0.627,-0.528 -1.133,-1.194 -1.518,-1.997 -0.385,-0.803 -0.577,-1.82 -0.577,-3.052 0,-1.232 0.203,-2.349 0.61,-3.35 0.407,-1.001 0.979,-1.859 1.716,-2.574 0.737,-0.715 1.639,-1.27 2.706,-1.666 1.067,-0.396 2.261,-0.594 3.581,-0.594 1.232,0 2.519,0.17 3.861,0.511 1.342,0.341 2.629,0.842 3.861,1.502 z"
   fill-rule="evenodd"
   id="path26" />
</g><g
   fill="#fffffe"
   opacity="1"
   stroke="none"
   id="g50"
   transform="translate(-255.00699,-344.77601)">
<path
   clip-path="url(#TextBounds_2)"
   d="m 228.629,331.253 c -0.47,-0.32 -0.945,-0.48 -1.425,-0.48 -0.26,0 -0.503,0.045 -0.728,0.135 -0.225,0.09 -0.422,0.218 -0.592,0.383 -0.17,0.165 -0.303,0.36 -0.398,0.585 -0.095,0.225 -0.142,0.477 -0.142,0.757 0,0.27 0.047,0.518 0.142,0.743 0.095,0.225 0.225,0.42 0.39,0.585 0.165,0.165 0.363,0.292 0.593,0.382 0.23,0.09 0.475,0.135 0.735,0.135 0.51,0 0.985,-0.175 1.425,-0.525 v 2.31 c -0.67,0.29 -1.305,0.435 -1.905,0.435 -0.56,0 -1.093,-0.095 -1.598,-0.285 -0.505,-0.19 -0.95,-0.462 -1.335,-0.817 -0.385,-0.355 -0.692,-0.78 -0.922,-1.275 -0.23,-0.495 -0.345,-1.048 -0.345,-1.658 0,-0.61 0.11,-1.167 0.33,-1.672 0.22,-0.505 0.52,-0.94 0.9,-1.305 0.38,-0.365 0.832,-0.65 1.357,-0.855 0.525,-0.205 1.088,-0.308 1.688,-0.308 0.66,0 1.27,0.14 1.83,0.42 z"
   fill-rule="evenodd"
   id="path30" />
<path
   clip-path="url(#TextBounds_2)"
   d="m 232.739,332.573 c 0,0.26 0.047,0.498 0.142,0.713 0.095,0.215 0.22,0.402 0.375,0.562 0.155,0.16 0.34,0.285 0.555,0.375 0.215,0.09 0.443,0.135 0.683,0.135 0.24,0 0.467,-0.045 0.682,-0.135 0.215,-0.09 0.4,-0.215 0.555,-0.375 0.155,-0.16 0.28,-0.347 0.375,-0.562 0.095,-0.215 0.143,-0.448 0.143,-0.698 0,-0.24 -0.048,-0.467 -0.143,-0.682 -0.095,-0.215 -0.22,-0.403 -0.375,-0.563 -0.155,-0.16 -0.34,-0.285 -0.555,-0.375 -0.215,-0.09 -0.442,-0.135 -0.682,-0.135 -0.24,0 -0.468,0.045 -0.683,0.135 -0.215,0.09 -0.4,0.215 -0.555,0.375 -0.155,0.16 -0.28,0.345 -0.375,0.555 -0.095,0.21 -0.142,0.435 -0.142,0.675 z m -2.865,-0.03 c 0,-0.57 0.115,-1.102 0.345,-1.597 0.23,-0.495 0.55,-0.925 0.96,-1.29 0.41,-0.365 0.897,-0.653 1.462,-0.863 0.565,-0.21 1.183,-0.315 1.853,-0.315 0.66,0 1.272,0.103 1.837,0.308 0.565,0.205 1.055,0.49 1.47,0.855 0.415,0.365 0.738,0.8 0.968,1.305 0.23,0.505 0.345,1.062 0.345,1.672 0,0.61 -0.118,1.168 -0.353,1.673 -0.235,0.505 -0.557,0.94 -0.967,1.305 -0.41,0.365 -0.903,0.647 -1.478,0.847 -0.575,0.2 -1.197,0.3 -1.867,0.3 -0.66,0 -1.27,-0.1 -1.83,-0.3 -0.56,-0.2 -1.043,-0.485 -1.448,-0.855 -0.405,-0.37 -0.722,-0.812 -0.952,-1.327 -0.23,-0.515 -0.345,-1.088 -0.345,-1.718 z"
   fill-rule="evenodd"
   id="path32" />
<path
   clip-path="url(#TextBounds_2)"
   d="m 240.674,328.763 h 2.715 v 0.975 c 0.37,-0.45 0.745,-0.752 1.125,-0.907 0.38,-0.155 0.825,-0.233 1.335,-0.233 0.54,0 1.002,0.088 1.387,0.263 0.385,0.175 0.713,0.422 0.983,0.742 0.22,0.26 0.37,0.55 0.45,0.87 0.08,0.32 0.12,0.685 0.12,1.095 v 4.89 h -2.715 v -3.885 c 0,-0.38 -0.028,-0.687 -0.083,-0.922 -0.055,-0.235 -0.152,-0.423 -0.292,-0.563 -0.12,-0.12 -0.255,-0.205 -0.405,-0.255 -0.15,-0.05 -0.31,-0.075 -0.48,-0.075 -0.46,0 -0.813,0.138 -1.058,0.413 -0.245,0.275 -0.367,0.667 -0.367,1.177 v 4.11 h -2.715 z"
   fill-rule="evenodd"
   id="path34" />
<path
   clip-path="url(#TextBounds_2)"
   d="m 253.574,331.028 v 5.43 h -2.715 v -5.43 h -0.975 v -2.265 h 0.975 v -1.155 c 0,-0.64 0.06,-1.15 0.18,-1.53 0.1,-0.32 0.26,-0.617 0.48,-0.892 0.22,-0.275 0.477,-0.513 0.772,-0.713 0.295,-0.2 0.613,-0.355 0.953,-0.465 0.34,-0.11 0.675,-0.165 1.005,-0.165 0.23,0 0.442,0.025 0.637,0.075 0.195,0.05 0.393,0.12 0.593,0.21 v 2.37 c -0.18,-0.09 -0.348,-0.157 -0.503,-0.202 -0.155,-0.045 -0.317,-0.068 -0.487,-0.068 -0.11,0 -0.223,0.018 -0.338,0.053 -0.115,0.035 -0.222,0.107 -0.322,0.217 -0.1,0.11 -0.168,0.268 -0.203,0.473 -0.035,0.205 -0.052,0.482 -0.052,0.832 v 0.96 h 1.905 v 2.265 z"
   fill-rule="evenodd"
   id="path36" />
<path
   clip-path="url(#TextBounds_2)"
   d="m 262.289,331.493 c -0.09,-0.38 -0.275,-0.685 -0.555,-0.915 -0.28,-0.23 -0.62,-0.345 -1.02,-0.345 -0.42,0 -0.763,0.11 -1.028,0.33 -0.265,0.22 -0.432,0.53 -0.502,0.93 z m -3.18,1.575 c 0,1.17 0.55,1.755 1.65,1.755 0.59,0 1.035,-0.24 1.335,-0.72 h 2.625 c -0.53,1.76 -1.855,2.64 -3.975,2.64 -0.65,0 -1.245,-0.097 -1.785,-0.292 -0.54,-0.195 -1.003,-0.473 -1.388,-0.833 -0.385,-0.36 -0.682,-0.79 -0.892,-1.29 -0.21,-0.5 -0.315,-1.06 -0.315,-1.68 0,-0.64 0.1,-1.217 0.3,-1.732 0.2,-0.515 0.485,-0.953 0.855,-1.313 0.37,-0.36 0.817,-0.637 1.342,-0.832 0.525,-0.195 1.118,-0.293 1.778,-0.293 0.65,0 1.235,0.098 1.755,0.293 0.52,0.195 0.96,0.477 1.32,0.847 0.36,0.37 0.635,0.823 0.825,1.358 0.19,0.535 0.285,1.137 0.285,1.807 v 0.285 z"
   fill-rule="evenodd"
   id="path38" />
<path
   clip-path="url(#TextBounds_2)"
   d="m 266.369,328.763 h 2.715 v 1.26 c 0.29,-0.46 0.645,-0.812 1.065,-1.057 0.42,-0.245 0.91,-0.368 1.47,-0.368 0.07,0 0.147,0 0.232,0 0.085,0 0.183,0.01 0.293,0.03 v 2.595 c -0.36,-0.18 -0.75,-0.27 -1.17,-0.27 -0.63,0 -1.103,0.188 -1.418,0.563 -0.315,0.375 -0.472,0.922 -0.472,1.642 v 3.3 h -2.715 z"
   fill-rule="evenodd"
   id="path40" />
<path
   clip-path="url(#TextBounds_2)"
   d="m 279.074,331.493 c -0.09,-0.38 -0.275,-0.685 -0.555,-0.915 -0.28,-0.23 -0.62,-0.345 -1.02,-0.345 -0.42,0 -0.763,0.11 -1.028,0.33 -0.265,0.22 -0.432,0.53 -0.502,0.93 z m -3.18,1.575 c 0,1.17 0.55,1.755 1.65,1.755 0.59,0 1.035,-0.24 1.335,-0.72 h 2.625 c -0.53,1.76 -1.855,2.64 -3.975,2.64 -0.65,0 -1.245,-0.097 -1.785,-0.292 -0.54,-0.195 -1.003,-0.473 -1.388,-0.833 -0.385,-0.36 -0.682,-0.79 -0.892,-1.29 -0.21,-0.5 -0.315,-1.06 -0.315,-1.68 0,-0.64 0.1,-1.217 0.3,-1.732 0.2,-0.515 0.485,-0.953 0.855,-1.313 0.37,-0.36 0.817,-0.637 1.342,-0.832 0.525,-0.195 1.118,-0.293 1.778,-0.293 0.65,0 1.235,0.098 1.755,0.293 0.52,0.195 0.96,0.477 1.32,0.847 0.36,0.37 0.635,0.823 0.825,1.358 0.19,0.535 0.285,1.137 0.285,1.807 v 0.285 z"
   fill-rule="evenodd"
   id="path42" />
<path
   clip-path="url(#TextBounds_2)"
   d="m 283.154,328.763 h 2.715 v 0.975 c 0.37,-0.45 0.745,-0.752 1.125,-0.907 0.38,-0.155 0.825,-0.233 1.335,-0.233 0.54,0 1.002,0.088 1.387,0.263 0.385,0.175 0.713,0.422 0.983,0.742 0.22,0.26 0.37,0.55 0.45,0.87 0.08,0.32 0.12,0.685 0.12,1.095 v 4.89 h -2.715 v -3.885 c 0,-0.38 -0.028,-0.687 -0.083,-0.922 -0.055,-0.235 -0.152,-0.423 -0.292,-0.563 -0.12,-0.12 -0.255,-0.205 -0.405,-0.255 -0.15,-0.05 -0.31,-0.075 -0.48,-0.075 -0.46,0 -0.813,0.138 -1.058,0.413 -0.245,0.275 -0.367,0.667 -0.367,1.177 v 4.11 h -2.715 z"
   fill-rule="evenodd"
   id="path44" />
<path
   clip-path="url(#TextBounds_2)"
   d="m 298.919,331.253 c -0.47,-0.32 -0.945,-0.48 -1.425,-0.48 -0.26,0 -0.503,0.045 -0.728,0.135 -0.225,0.09 -0.422,0.218 -0.592,0.383 -0.17,0.165 -0.303,0.36 -0.398,0.585 -0.095,0.225 -0.142,0.477 -0.142,0.757 0,0.27 0.047,0.518 0.142,0.743 0.095,0.225 0.225,0.42 0.39,0.585 0.165,0.165 0.363,0.292 0.593,0.382 0.23,0.09 0.475,0.135 0.735,0.135 0.51,0 0.985,-0.175 1.425,-0.525 v 2.31 c -0.67,0.29 -1.305,0.435 -1.905,0.435 -0.56,0 -1.093,-0.095 -1.598,-0.285 -0.505,-0.19 -0.95,-0.462 -1.335,-0.817 -0.385,-0.355 -0.692,-0.78 -0.922,-1.275 -0.23,-0.495 -0.345,-1.048 -0.345,-1.658 0,-0.61 0.11,-1.167 0.33,-1.672 0.22,-0.505 0.52,-0.94 0.9,-1.305 0.38,-0.365 0.832,-0.65 1.357,-0.855 0.525,-0.205 1.088,-0.308 1.688,-0.308 0.66,0 1.27,0.14 1.83,0.42 z"
   fill-rule="evenodd"
   id="path46" />
<path
   clip-path="url(#TextBounds_2)"
   d="m 306.089,331.493 c -0.09,-0.38 -0.275,-0.685 -0.555,-0.915 -0.28,-0.23 -0.62,-0.345 -1.02,-0.345 -0.42,0 -0.763,0.11 -1.028,0.33 -0.265,0.22 -0.432,0.53 -0.502,0.93 z m -3.18,1.575 c 0,1.17 0.55,1.755 1.65,1.755 0.59,0 1.035,-0.24 1.335,-0.72 h 2.625 c -0.53,1.76 -1.855,2.64 -3.975,2.64 -0.65,0 -1.245,-0.097 -1.785,-0.292 -0.54,-0.195 -1.003,-0.473 -1.388,-0.833 -0.385,-0.36 -0.682,-0.79 -0.892,-1.29 -0.21,-0.5 -0.315,-1.06 -0.315,-1.68 0,-0.64 0.1,-1.217 0.3,-1.732 0.2,-0.515 0.485,-0.953 0.855,-1.313 0.37,-0.36 0.817,-0.637 1.342,-0.832 0.525,-0.195 1.118,-0.293 1.778,-0.293 0.65,0 1.235,0.098 1.755,0.293 0.52,0.195 0.96,0.477 1.32,0.847 0.36,0.37 0.635,0.823 0.825,1.358 0.19,0.535 0.285,1.137 0.285,1.807 v 0.285 z"
   fill-rule="evenodd"
   id="path48" />
</g><g
   opacity="1"
   id="g66"
   transform="translate(-234.581,-528.883)">
<path
   d="m 234.581,528.883 h 65.182 v 65.183 h -65.182 z"
   fill="#3684f0"
   fill-rule="evenodd"
   opacity="1"
   stroke="none"
   id="path52"
   style="fill:#1c9300;fill-opacity:1"
   inkscape:export-filename="/Users/jose/Sites/verdi2023/assets/icons/verdi-logo.png"
   inkscape:export-xdpi="300.07999"
   inkscape:export-ydpi="300.07999" />
<g
   fill="#fffffe"
   opacity="1"
   stroke="none"
   id="g58">


</g>

<g
   id="g19713"
   transform="translate(-2.4591626,-1.3872859)"><text
     xml:space="preserve"
     style="font-style:normal;font-variant:normal;font-weight:bold;font-stretch:normal;font-size:57.2899px;line-height:1.25;font-family:Futura;-inkscape-font-specification:'Futura, Bold';font-variant-ligatures:normal;font-variant-caps:normal;font-variant-numeric:normal;font-variant-east-asian:normal;fill:#ffffff;fill-opacity:1;stroke:none;stroke-width:1.43225"
     x="241.44237"
     y="584.46008"
     id="text15856"><tspan
       sodipodi:role="line"
       id="tspan15854"
       x="241.44237"
       y="584.46008"
       style="stroke-width:1.43225">V</tspan></text><rect
     style="fill:#ffffff;fill-opacity:1;stroke:none;stroke-width:1.37953"
     id="rect19560"
     width="19.783611"
     height="10.63512"
     x="278.03635"
     y="541.26349" /><rect
     style="clip-rule:evenodd;fill:#ffffff;fill-opacity:1;fill-rule:nonzero;stroke:none;stroke-width:1.19275;stroke-linecap:round;stroke-linejoin:round"
     id="rect19560-3"
     width="19.783611"
     height="7.9501925"
     x="273.29056"
     y="558.88672" /><rect
     style="clip-rule:evenodd;fill:#ffffff;fill-opacity:1;fill-rule:nonzero;stroke:none;stroke-width:1.53177;stroke-linecap:round;stroke-linejoin:round"
     id="rect19560-2"
     width="24.39094"
     height="10.63512"
     x="263.93747"
     y="573.82495" /></g></g>
</svg>
